<svg xmlns="http://www.w3.org/2000/svg" width="22.468" height="22.736" viewBox="0 0 22.468 22.736">
  <path id="パス_130" data-name="パス 130" d="M4047.248,33.956a8.81,8.81,0,0,0-1.747,1.358c-2.369,2.369-3.115,5.719-1.891,8.277-8.206,2.478-12.551,3.789-14.855,4.486l7.319-7.318a3.209,3.209,0,1,0-.931-.934l-7.318,7.318,4.518-14.952a6.151,6.151,0,0,0,2.256.416,8.126,8.126,0,0,0,5.647-2.476,8.9,8.9,0,0,0,.911-1.074l3.259,3.194a.659.659,0,1,0,.923-.941l-3.724-3.65a.65.65,0,0,0-.136-.1.711.711,0,0,0-.107-.079.659.659,0,0,0-.9.233,7.525,7.525,0,0,1-1.156,1.484c-2.021,2.021-4.974,2.658-7.022,1.514a.658.658,0,0,0-.9.254,2.318,2.318,0,0,1-.147.3L4025.8,49.275c0,.007,0,.014,0,.02a.67.67,0,0,0-.025.173v.006a.655.655,0,0,0,.025.164l.011.038a.633.633,0,0,0,.074.155l.005.006a.752.752,0,0,0,.077.095c.011.011.024.018.035.028s.01.012.016.017l.016.01a.653.653,0,0,0,.172.1l.027.008a.652.652,0,0,0,.2.034h0a.653.653,0,0,0,.176-.027c.007,0,.015,0,.021,0l18.011-5.438a.659.659,0,0,0,.44-.822.643.643,0,0,0-.084-.172.65.65,0,0,0-.079-.394c-1.144-2.048-.507-5,1.514-7.023a7.527,7.527,0,0,1,1.485-1.155.659.659,0,0,0-.671-1.135Zm-10.754,2.794a1.881,1.881,0,1,1-.551,1.33A1.873,1.873,0,0,1,4036.494,36.75Z" transform="translate(-4025.775 -27.389)" fill="#fff"/>
     <path
        d="M13.324 3.848L11 1.6 8.676 3.848l-3.201-.453-.559 3.184L2.06 8.095 3.48 11l-1.42 2.904 2.856 1.516.559 3.184 3.201-.452L11 20.4l2.324-2.248 3.201.452.559-3.184 2.856-1.516L18.52 11l1.42-2.905-2.856-1.516-.559-3.184zm-7.09 7.575l3.428 3.428 5.683-6.206-1.347-1.247-4.4 4.795-2.072-2.072z"
        fill="url(#16-a)"
      ></path>
</svg>
